<?xml version="1.0" standalone="no"?>
<!DOCTYPE svg PUBLIC "-//W3C//DTD SVG 20010904//EN"
 "http://www.w3.org/TR/2001/REC-SVG-20010904/DTD/svg10.dtd">
<svg version="1.0" xmlns="http://www.w3.org/2000/svg"
 width="956.000000pt" height="531.000000pt" viewBox="0 0 956.000000 531.000000"
 preserveAspectRatio="xMidYMid meet">
<metadata>
Created by potrace 1.16, written by Peter Selinger 2001-2019
</metadata>
<g transform="translate(0.000000,531.000000) scale(0.100000,-0.100000)"
fill="#000000" stroke="none">
<path d="M4844 4881 c-58 -36 -192 -208 -274 -353 -17 -32 -35 -58 -39 -58 -3
0 -30 16 -60 36 -88 59 -219 124 -252 124 -39 0 -95 -26 -115 -54 -22 -31 -62
-165 -86 -289 l-22 -109 -40 6 c-189 28 -314 33 -354 12 -56 -29 -76 -62 -80
-131 -7 -111 25 -340 68 -479 l20 -62 127 -18 c71 -9 142 -20 159 -23 31 -5
32 -4 39 39 41 269 76 423 108 482 31 55 69 81 121 81 48 0 126 -46 260 -153
43 -35 80 -62 82 -60 2 2 20 40 40 83 86 191 244 443 297 475 18 11 48 20 67
20 19 0 49 -9 67 -20 53 -32 208 -279 300 -478 l38 -84 65 53 c104 83 224 159
261 165 72 11 133 -47 165 -154 21 -74 59 -264 74 -373 l12 -86 53 12 c29 7
101 18 159 25 l106 13 19 63 c43 139 76 368 69 479 -4 69 -24 102 -80 131 -40
21 -165 16 -354 -12 l-40 -6 -22 109 c-24 124 -64 258 -86 289 -20 28 -76 54
-115 54 -33 0 -164 -65 -252 -124 -30 -20 -57 -36 -60 -36 -4 0 -22 26 -39 58
-85 150 -225 328 -281 357 -38 20 -88 19 -125 -4z"/>
<path d="M4857 4180 c-202 -314 -345 -705 -376 -1028 -7 -71 -6 -73 13 -68 42
12 566 18 711 8 83 -5 152 -8 154 -6 8 7 -31 245 -59 355 -46 184 -132 402
-222 569 -35 63 -157 260 -162 260 0 0 -27 -41 -59 -90z"/>
<path d="M4126 3768 c-28 -120 -56 -287 -56 -328 0 -22 9 -28 63 -49 34 -13
94 -41 133 -62 l72 -38 6 49 c4 26 23 106 42 177 20 70 38 137 41 148 3 15
-11 33 -60 72 -71 57 -196 143 -208 143 -4 0 -19 -51 -33 -112z"/>
<path d="M5547 3816 c-49 -35 -108 -79 -132 -99 l-43 -36 28 -93 c15 -52 38
-139 51 -194 l22 -101 71 37 c39 21 98 48 131 61 33 13 62 24 63 25 7 4 -39
280 -61 368 -12 49 -26 91 -32 93 -5 1 -50 -26 -98 -61z"/>
<path d="M3726 3272 c43 -74 96 -142 159 -205 48 -47 63 -57 82 -52 27 6 234
40 306 50 81 11 59 38 -93 115 -117 59 -258 102 -448 134 l-34 6 28 -48z"/>
<path d="M6035 3304 c-211 -38 -515 -165 -515 -216 0 -20 -6 -18 180 -47 74
-12 144 -24 156 -27 35 -9 165 134 244 269 12 20 20 37 18 36 -1 0 -39 -7 -83
-15z"/>
<path d="M500 2315 c0 -12 13 -15 55 -15 l55 0 0 -620 0 -620 -55 0 c-42 0
-55 -3 -55 -15 0 -13 39 -15 290 -15 251 0 290 2 290 15 0 12 -13 15 -55 15
l-55 0 0 305 0 305 190 0 190 0 0 -305 0 -305 -55 0 c-42 0 -55 -3 -55 -15 0
-13 39 -15 290 -15 251 0 290 2 290 15 0 12 -13 15 -55 15 l-55 0 0 620 0 620
55 0 c42 0 55 3 55 15 0 13 -39 15 -290 15 -251 0 -290 -2 -290 -15 0 -12 13
-15 55 -15 l55 0 0 -290 0 -290 -190 0 -190 0 0 290 0 290 55 0 c42 0 55 3 55
15 0 13 -39 15 -290 15 -251 0 -290 -2 -290 -15z"/>
<path d="M2313 1915 c-133 -36 -185 -89 -191 -195 -6 -106 28 -154 119 -166
126 -17 219 71 192 183 -6 28 -15 39 -33 43 -22 5 -25 12 -28 52 -3 44 -1 48
28 63 17 9 45 15 62 13 66 -7 88 -82 88 -304 l0 -144 -102 0 c-57 0 -134 -7
-173 -15 -152 -32 -205 -88 -205 -215 0 -138 75 -208 233 -217 130 -8 197 19
236 95 l19 37 10 -26 c25 -64 124 -109 240 -109 158 0 222 61 239 225 7 67
-12 83 -22 17 -11 -76 -27 -122 -49 -138 -27 -18 -32 -18 -56 6 -19 19 -20 33
-20 253 0 264 -10 350 -46 425 -30 61 -83 97 -173 118 -75 18 -300 17 -368 -1z
m237 -597 c-1 -127 -12 -182 -46 -219 -10 -11 -27 -19 -38 -17 -37 5 -47 44
-44 165 3 121 16 153 69 180 56 29 59 24 59 -109z"/>
<path d="M3828 1920 c-51 -15 -100 -53 -129 -98 l-28 -44 -3 68 -3 69 -220 0
c-189 0 -220 -2 -220 -15 0 -11 13 -16 48 -18 l47 -3 0 -635 0 -634 -50 0
c-38 0 -50 -4 -50 -15 0 -13 45 -15 345 -15 300 0 345 2 345 15 0 13 -20 15
-120 15 l-120 0 0 241 0 241 35 -31 c47 -41 103 -54 205 -48 103 6 168 29 227
81 84 74 123 192 123 376 0 241 -76 396 -217 444 -49 17 -169 20 -215 6z m26
-82 c38 -33 46 -97 46 -361 0 -270 -10 -349 -51 -389 -39 -39 -81 -38 -124 5
-51 51 -57 88 -53 366 l3 248 30 59 c22 42 40 64 65 76 45 23 54 23 84 -4z"/>
<path d="M5081 1918 c-35 -12 -103 -72 -133 -118 -17 -24 -17 -23 -17 48 l-1
72 -220 0 c-213 0 -220 -1 -220 -20 0 -17 7 -20 50 -20 l50 0 0 -635 0 -635
-50 0 c-38 0 -50 -4 -50 -15 0 -13 45 -15 345 -15 297 0 345 2 345 15 0 12
-23 15 -122 17 l-123 3 -3 238 c-1 130 -1 237 2 237 2 0 18 -13 36 -30 43 -41
98 -53 205 -48 243 13 350 154 349 463 -1 228 -53 353 -176 420 -46 25 -65 29
-143 32 -49 1 -105 -3 -124 -9z m23 -69 c16 -8 32 -29 43 -58 16 -40 18 -81
18 -311 0 -287 -8 -349 -50 -394 -46 -50 -124 -24 -158 52 -18 41 -21 71 -25
232 -5 207 8 341 37 397 26 51 68 88 103 92 4 1 18 -4 32 -10z"/>
<path d="M6081 1915 c-244 -68 -365 -292 -306 -568 49 -233 221 -348 500 -334
127 6 193 28 257 85 46 42 108 143 108 177 0 32 -26 13 -44 -32 -26 -63 -90
-131 -146 -156 -57 -25 -162 -28 -206 -4 -81 42 -113 124 -121 305 l-6 122
267 0 266 0 0 28 c0 57 -22 159 -45 209 -31 68 -93 127 -163 154 -75 29 -279
37 -361 14z m192 -33 c28 -31 37 -71 44 -203 l6 -129 -103 0 -103 0 6 123 c5
128 15 168 49 205 26 27 78 29 101 4z"/>
<path d="M7485 1915 c-50 -20 -89 -57 -126 -120 l-29 -50 0 88 0 87 -220 0
c-213 0 -220 -1 -220 -20 0 -17 7 -20 50 -20 l50 0 0 -410 0 -410 -50 0 c-38
0 -50 -4 -50 -15 0 -13 36 -15 260 -15 224 0 260 2 260 15 0 11 -11 15 -41 15
l-41 0 4 303 c4 283 5 306 26 358 24 60 73 114 113 124 37 9 69 -21 80 -75 4
-25 8 -195 9 -377 l0 -333 -40 0 c-29 0 -40 -4 -40 -15 0 -13 36 -15 265 -15
229 0 265 2 265 15 0 12 -13 15 -55 15 l-55 0 0 315 c0 189 -4 334 -11 365
-14 64 -61 127 -119 160 -38 21 -60 25 -145 27 -70 2 -112 -2 -140 -12z"/>
<path d="M8533 1915 c-209 -57 -314 -204 -315 -440 0 -164 37 -269 124 -351
91 -85 214 -121 387 -111 220 12 352 103 407 282 38 124 25 335 -28 441 -45
90 -140 158 -256 183 -72 15 -256 13 -319 -4z m222 -40 c15 -17 27 -48 34 -89
14 -81 14 -579 0 -645 -13 -61 -54 -101 -103 -101 -46 0 -72 23 -93 83 -16 46
-18 87 -18 347 0 317 6 362 50 406 34 34 97 33 130 -1z"/>
</g>
</svg>
